<svg width="1171" height="400" viewBox="0 0 1171 400" fill="none" xmlns="http://www.w3.org/2000/svg">
<path d="M1016.18 113.078C1020.38 109.192 1027.51 109.192 1031.72 113.078L1035.63 116.691C1038.25 119.113 1042.17 120.128 1045.9 119.347L1051.31 118.214C1057.21 116.979 1063.1 120.247 1064.26 125.392L1065.51 130.964C1066.22 134.116 1068.78 136.721 1072.27 137.832L1078.15 139.708C1080.4 140.424 1082.2 141.724 1083.4 143.334L1087.17 146.814C1089.79 149.236 1093.71 150.251 1097.44 149.47L1102.85 148.337C1108.74 147.102 1114.64 150.37 1115.8 155.515L1117.05 161.087C1117.76 164.239 1120.32 166.844 1123.81 167.955L1129.69 169.831C1135.23 171.596 1138.04 176.918 1135.96 181.689L1133.46 187.428C1132.19 190.357 1132.73 193.645 1134.89 196.154L1139.08 201.012C1142.57 205.069 1141.62 210.804 1136.94 213.845L1131.58 217.327C1128.66 219.226 1127.07 222.289 1127.38 225.437L1127.96 231.408C1128.46 236.556 1123.95 241.048 1117.98 241.348L1112.14 241.642C1108.36 241.832 1104.98 243.742 1103.27 246.659L1100.5 251.372C1097.73 256.097 1090.92 257.822 1085.63 255.139L1080.87 252.724C1077.55 251.036 1073.42 251.036 1070.1 252.724L1065.34 255.139C1064.57 255.532 1063.76 255.83 1062.94 256.038L1063.49 261.734C1063.99 266.882 1059.48 271.374 1053.51 271.675L1047.67 271.969C1046.95 272.005 1046.24 272.104 1045.56 272.261V422.301H1035.79V282.097C1032.87 286.518 1026.3 288.072 1021.17 285.465L1016.41 283.051C1015.67 282.674 1014.89 282.382 1014.08 282.174V422.301H1004.32V283.719L1000.88 285.465C995.588 288.148 988.777 286.423 986.003 281.699L983.236 276.985C981.524 274.069 978.147 272.159 974.369 271.969L970.896 271.794C970.244 271.99 969.608 272.242 968.999 272.551L964.241 274.965C958.954 277.649 952.143 275.924 949.369 271.199L946.602 266.485C944.889 263.569 941.513 261.659 937.735 261.469L931.897 261.175C925.927 260.875 921.417 256.383 921.917 251.234L922.496 245.264C922.801 242.116 921.213 239.053 918.29 237.154L912.932 233.671C908.253 230.631 907.299 224.896 910.795 220.839L914.984 215.981C917.147 213.471 917.684 210.183 916.408 207.255L913.908 201.516C911.829 196.744 914.644 191.423 920.18 189.658L926.064 187.782C929.552 186.671 932.115 184.066 932.823 180.913L934.076 175.342C935.232 170.197 941.127 166.929 947.022 168.164L952.431 169.297C956.16 170.078 960.087 169.063 962.707 166.641L966.076 163.527C966.868 161.533 966.854 159.333 965.971 157.305L963.47 151.566C961.391 146.794 964.207 141.473 969.743 139.708L975.628 137.832C979.115 136.721 981.677 134.116 982.386 130.964L983.639 125.392C984.796 120.247 990.69 116.979 996.585 118.214L1001.99 119.347C1005.72 120.128 1009.65 119.113 1012.27 116.691L1016.18 113.078Z" fill="#636C69"/>
<path d="M63.1337 133.325C58.2813 130.051 51.2353 131.01 47.7822 135.414L44.3345 139.81C42.1827 142.555 38.4862 144.085 34.6621 143.815L28.7012 143.393C22.6556 142.966 17.4209 146.987 17.2046 152.224L16.9553 158.267C16.823 161.477 14.7603 164.394 11.5157 165.961L5.67689 168.78C0.526133 171.268 -1.29649 176.902 1.61633 181.336L5.33084 186.991C7.11826 189.713 7.18022 193.033 5.49507 195.802L2.03532 201.489C0.394162 204.186 0.459046 207.269 1.90042 209.812C1.98987 211.179 2.43562 212.55 3.27105 213.822L6.98593 219.477C8.77335 222.198 8.83531 225.518 7.15016 228.288L3.69005 233.974C2.32382 236.22 2.14016 238.731 2.9481 240.977C2.7857 242.745 3.2124 244.572 4.30223 246.231L8.01711 251.886C9.80453 254.607 9.86648 257.927 8.18134 260.697L4.72122 266.384C1.99757 270.861 3.97341 276.398 9.1425 278.772L15.4333 281.662C18.6621 283.146 20.7828 285.958 21.0478 289.109L21.5819 295.455C22.0156 300.608 27.2796 304.439 33.2306 303.933L39.4627 303.404C43.2293 303.084 46.909 304.517 49.125 307.167L52.9575 311.751C55.746 315.086 60.6145 316.306 64.8705 315.111V428.307H75.727V308.784C78.2036 307.932 81.0031 307.902 83.5578 308.77L89.0821 310.648C94.7882 312.588 101.206 309.969 103.095 304.929L105.112 299.55C106.278 296.439 109.269 294.098 112.967 293.403L119.086 292.252C124.929 291.153 128.575 286.109 127.155 281.091L125.406 274.91C124.537 271.841 125.555 268.602 128.1 266.333L133.058 261.913C137.132 258.281 137.043 252.487 132.858 248.95L127.543 244.457C125.57 242.79 124.449 240.549 124.351 238.221C124.784 236.628 125.708 235.137 127.068 233.924L132.027 229.504C136.101 225.871 136.012 220.078 131.827 216.541L126.511 212.048C123.975 209.904 122.846 206.813 123.491 203.807C123.976 202.947 124.621 202.146 125.413 201.439L130.372 197.018C134.446 193.386 134.356 187.592 130.172 184.055L124.856 179.562C122.268 177.374 121.145 174.199 121.878 171.134L123.402 164.767C124.596 159.774 120.857 154.896 115.071 153.896L108.512 152.764C104.867 152.134 101.866 149.906 100.598 146.887L98.2113 141.203C96.1424 136.276 89.7309 133.84 84.13 135.852L78.6076 137.836C75.0646 139.108 71.0026 138.634 67.9783 136.593L63.1337 133.325Z" fill="#636C69"/>
<path d="M1731.82 1.94722C1726.97 -1.32633 1719.92 -0.367661 1716.47 4.0359L1713.02 8.43258C1710.87 11.1772 1707.17 12.7074 1703.35 12.4371L1697.39 12.0156C1691.34 11.5882 1686.11 15.6091 1685.89 20.8464L1685.64 26.8895C1685.51 30.0991 1683.44 33.016 1680.2 34.583L1674.36 37.4024C1669.21 39.8898 1667.39 45.5247 1670.3 49.9587L1674.02 55.6137C1675.8 58.335 1675.86 61.655 1674.18 64.4246L1670.72 70.1114C1669.08 72.8088 1669.14 75.891 1670.58 78.4345C1670.67 79.8014 1671.12 81.1722 1671.96 82.4441L1675.67 88.0991C1677.46 90.8203 1677.52 94.1403 1675.83 96.9099L1672.37 102.597C1671.01 104.842 1670.82 107.354 1671.63 109.6C1671.47 111.367 1671.9 113.194 1672.99 114.853L1676.7 120.508C1678.49 123.229 1678.55 126.549 1676.87 129.319L1673.41 135.006C1670.68 139.483 1672.66 145.02 1677.83 147.395L1684.12 150.285C1687.35 151.768 1689.47 154.58 1689.73 157.731L1690.27 164.077C1690.7 169.23 1695.96 173.061 1701.91 172.555L1708.15 172.026C1711.91 171.706 1715.59 173.139 1717.81 175.79L1721.64 180.373C1724.43 183.708 1729.3 184.929 1733.55 183.733V296.93H1744.41V177.407C1746.89 176.554 1749.69 176.524 1752.24 177.393L1757.77 179.271C1763.47 181.211 1769.89 178.591 1771.78 173.551L1773.8 168.172C1774.96 165.062 1777.95 162.721 1781.65 162.025L1787.77 160.874C1793.61 159.775 1797.26 154.732 1795.84 149.713L1794.09 143.533C1793.22 140.464 1794.24 137.224 1796.78 134.956L1801.74 130.535C1805.82 126.903 1805.73 121.109 1801.54 117.572L1796.23 113.079C1794.25 111.412 1793.13 109.171 1793.03 106.843C1793.47 105.25 1794.39 103.76 1795.75 102.547L1800.71 98.126C1804.78 94.4938 1804.7 88.7 1800.51 85.163L1795.19 80.6701C1792.66 78.5266 1791.53 75.4353 1792.17 72.4295C1792.66 71.5689 1793.3 70.768 1794.1 70.0612L1799.06 65.6407C1803.13 62.0085 1803.04 56.2147 1798.86 52.6776L1793.54 48.1848C1790.95 45.9966 1789.83 42.8209 1790.56 39.7567L1792.09 33.389C1793.28 28.3963 1789.54 23.518 1783.75 22.5187L1777.2 21.386C1773.55 20.7566 1770.55 18.5285 1769.28 15.5094L1766.9 9.82498C1764.83 4.89845 1758.42 2.46219 1752.81 4.47422L1747.29 6.45799C1743.75 7.73076 1739.69 7.25601 1736.66 5.21571L1731.82 1.94722Z" fill="#636C69"/>
<path d="M281.325 313.002L285.547 314.218C285.617 314.914 285.597 315.622 285.479 316.33L284.421 322.689C283.588 327.695 287.594 332.342 293.385 333.086L300.432 333.991C304.05 334.455 307.137 336.493 308.607 339.385L311.568 345.211C312.417 346.881 313.77 348.222 315.403 349.161V462.999H326.259V349.659L331.497 347.533C334.922 346.143 338.945 346.43 342.06 348.287L347.447 351.498C347.618 351.6 347.791 351.697 347.966 351.789V462.999H358.822V351.887C360.323 351.137 361.634 350.057 362.597 348.678L365.66 344.285C367.651 341.431 371.274 339.731 375.129 339.844L380.023 339.987C382.994 341.662 386.877 342.026 390.355 340.621L395.541 338.525C399.016 337.121 403.098 337.442 406.222 339.367L410.753 342.159C412.1 342.989 413.591 343.507 415.114 343.734V462.999H425.971V339.519L429.427 334.895C431.444 332.197 434.945 330.605 438.661 330.695L444.931 330.848C450.829 330.991 455.735 326.959 455.863 321.862L456.017 315.731C456.071 313.565 457.006 311.518 458.601 309.922L463.069 308.117C466.545 306.712 470.627 307.034 473.751 308.959L478.282 311.75C483.221 314.793 490.101 313.657 493.392 309.254L496.956 304.487C498.973 301.789 502.474 300.196 506.19 300.287L512.46 300.439C518.358 300.583 523.265 296.55 523.392 291.453L523.546 285.322C523.624 282.194 525.54 279.315 528.629 277.682L534.61 274.521C539.605 271.882 541.191 266.252 538.16 261.925L534.688 256.969C532.794 254.266 532.641 250.912 534.281 248.088L537.392 242.734C540.075 238.117 537.826 232.497 532.416 230.297L527.124 228.146C523.7 226.754 521.39 223.895 521.058 220.638L520.522 215.373C519.984 210.095 514.406 206.303 508.343 207.092L502.886 207.802C499.072 208.298 495.246 206.971 492.888 204.335L489.513 200.563C485.763 196.372 478.698 195.781 474.087 199.273L469.487 202.757C466.641 204.912 462.684 205.599 459.095 204.56L453.551 202.954C447.881 201.312 441.759 204.029 440.003 208.968L437.967 214.695C437.31 216.545 436.006 218.136 434.284 219.281C433.252 217.979 431.817 216.888 430.042 216.167L424.751 214.016C421.326 212.623 419.016 209.764 418.684 206.507L418.148 201.242C417.61 195.965 412.033 192.172 405.969 192.961L403.141 193.329L398.016 189.497C395.278 187.45 393.934 184.339 394.449 181.242L395.447 175.245C396.28 170.239 392.274 165.592 386.483 164.849L379.851 163.997C376.233 163.533 373.146 161.495 371.676 158.602L368.888 153.117C366.484 148.387 360.04 146.298 354.627 148.495L349.335 150.643C345.91 152.033 341.887 151.746 338.772 149.889L333.736 146.887C328.69 143.878 321.751 145.17 318.586 149.707L315.738 153.791C313.747 156.645 310.124 158.344 306.27 158.232L300.755 158.071C294.626 157.892 289.593 162.216 289.764 167.511L289.935 172.794C290.041 176.063 288.128 179.134 284.913 180.858L279.945 183.523C274.864 186.247 273.381 192.054 276.663 196.373L280.469 201.381C281.698 202.998 282.285 204.88 282.207 206.757C280.388 206.613 278.501 206.872 276.725 207.593L271.432 209.741C268.007 211.131 263.984 210.844 260.869 208.987L255.834 205.985C250.787 202.977 243.849 204.268 240.684 208.806L237.836 212.889C235.845 215.743 232.222 217.442 228.367 217.33L222.853 217.169C216.724 216.99 211.691 221.314 211.862 226.61L212.033 231.893C212.139 235.161 210.226 238.232 207.01 239.957L202.042 242.621C196.962 245.346 195.479 251.152 198.761 255.471L202.567 260.479C204.574 263.12 204.869 266.467 203.35 269.341L200.564 274.61C198.131 279.21 200.459 284.644 205.772 286.768L212.136 289.311C215.423 290.625 217.711 293.293 218.207 296.393L219.179 302.467C219.987 307.518 225.399 311.034 231.239 310.303L237.447 309.526C241.126 309.066 244.816 310.298 247.18 312.777L251.358 317.157C255.215 321.201 262.2 321.644 266.699 318.129L270.827 314.904C273.673 312.68 277.685 311.953 281.325 313.002Z" fill="#636C69"/>
</svg>
