<svg width="1200" height="334" viewBox="0 0 1200 334" fill="#F5C5CE" xmlns="http://www.w3.org/2000/svg">
<path d="M1200 334V296.262L975.965 108.017L938.269 139.691L846.841 26.1529L827.767 49.8405L806.948 0L741.253 157.277L696.699 212.605L637.303 144.328L605.779 180.565L509.755 60.7622L412.129 182.563L399.65 168.218L390.137 179.154L344.004 126.123L325.299 147.624L278.171 45.3243L242.241 123.315L224.035 108.017L0 296.262V334H1200Z" />
<path d="M1200 334V296.262L975.965 108.017L938.269 139.691L846.841 26.1529L827.767 49.8405L806.948 0L741.253 157.277L696.699 212.605L637.303 144.328L605.779 180.565L509.755 60.7622L412.129 182.563L399.65 168.218L390.137 179.154L344.004 126.123L325.299 147.624L278.171 45.3243L242.241 123.315L224.035 108.017L0 296.262V334H1200Z" />
</svg>
