<svg width="1200" height="302" viewBox="0 0 1200 302" fill="none" xmlns="http://www.w3.org/2000/svg">
<path d="M226.545 0L349.054 152.35L454.464 0L528.904 107.59L551.771 89.4829L673.397 185.792L809.429 48.3788L938.434 178.695L1058.33 74.6674L1081.38 94.5056L1200 197.594H916.653L924.227 191.021H680.002L692.979 201.297H593.739L596.138 204.763H312.79L333.037 175.5H195.092L216.173 216.378H0L108.086 6.78057L152.241 92.4033L226.545 0Z" fill="#556B9A"/>
<path d="M90.0087 190.057H1144.05L1200 197.594V302H1144.05H-3L0 216.378L90.0087 190.057Z" fill="#556B9A"/>
<path d="M161.208 164.695H352.169V231.161H161.208V164.695Z" fill="#556B9A"/>
</svg>
