<svg width="1200" height="145" viewBox="0 0 1200 145" fill="none" xmlns="http://www.w3.org/2000/svg">
<path d="M539.937 74.6926C494.621 52.8125 451.629 54.256 401.289 53.2781C355.554 52.3896 301.376 -8.16737 247.959 0.931108C188.611 11.0399 156.077 43.1536 127.833 43.6324C100.667 44.093 63.7423 50.5475 33.7087 62.5786C19.203 68.3894 -0.584023 66.7458 -0.584023 66.7458L-1 145L1200.5 145.5L1200 105.11L1201 66.9425H1196.46C1191.23 66.9425 1154.15 64.5785 1147.41 65.2145C1116.61 68.1196 1085.98 73.2227 1027.72 74.6926C949.16 76.6745 938.607 11.2306 863.209 28.1996C836.408 34.2314 777.435 54.3405 756.888 48.1934C669.925 22.176 627.646 117.042 539.937 74.6926Z" fill="#8D777E"/>
</svg>
